<svg xmlns="http://www.w3.org/2000/svg" width="3000" height="2000" viewBox="0 500 3000 2000">
  <defs>
    <style>
      .cls-1 {
        fill: #000000;
        stroke-width: 1px;
        fill-rule: evenodd;
      }
    </style>
  </defs>
  <path id="形状_1" data-name="形状 1" class="cls-1" d="M382,1228l415-32,4,68s-219.245,8.45-339.022,13.07C416.965,1278.81,386,1280,386,1280Zm26,78,54-27,31,71,64-4-24-44,53-27,24,66,72-6,32-68h30l33,17-30,46,40-3,69,42-15,111-55,5-2-89-251,11-7,24,245-8-15,65-243-1-5,27,218-6,46,47-64,72,126,52-32,64-143-68-186,68-28-59,130-47-82-40,20-32-19-2L389,1720l-52-40,100-141,14-52H417l-8-48,54-4,7-23-72,1-2,66-59,12-10-145,71,3,1,8,36-3Zm151,258,108,4-30,29Zm364-141-34,127,31,12,21-59h30l1,95-69,26,19,44,50-24v111h37l2-129,38-18-12-34-25,10,1-81,27-2,6-46-31,2,1-65-44-5-1,67-15,2,8-21"/>
  <path id="形状_2" data-name="形状 2" class="cls-1" d="M1067,1428l5,36,69-1-1,50-100,5,2,37h219l5-46-87,2,3-47,67-1,5-46-69,2,1-33-41-3-2,39Z"/>
  <path id="形状_3" data-name="形状 3" class="cls-1" d="M1179,1560l45,4v23h37l-4,46-34,1-2,121-42,2-33-16,12-34,21,7,1-80H1054l-4-39,130-6Zm-74,83,43,50-25,25-50-46Zm217-298,371-14-4,61-155,1-5,202,188-4-5,62-413,1-8-53,182-3-5-203-141-1Zm480,4-122,169,39,27,28-34-1,280,47-5,10-327-11-6,57-69Zm102,2-81,177,42,19,45-79,33,1,2,327,48-3,1-104,112-3,8-55-118,8,2-56h97l5-52-102,4,2-65,113-2,3-59-177,6,20-39Zm424-59-41,37,24,22-109,8v-7l-59-2,3,115,48-6,5-55,301-4-5,61,46-4,18-80-53-35-129,7Zm-123,146,4,42,67,2-69,62,33,39,216-7,11,25,46-20-48-84-39,17,10,20-148,3,54-55,144-2,6-49Zm130,149,52,5v17l111-2-6,52-109,1-4,34,152-6-3,53-350,5-8-44,168-8-4-33H2207l-5-42,133-6v-26Z"/>
</svg>
